<?xml version="1.0" encoding="UTF-8" standalone="no"?>
<!-- Created with Inkscape (http://www.inkscape.org/) -->

<svg
   width="13.054879mm"
   height="7.8940916mm"
   viewBox="0 0 13.054879 7.8940918"
   version="1.1"
   id="svg5"
   xml:space="preserve"
   inkscape:version="1.3 (0e150ed6c4, 2023-07-21)"
   sodipodi:docname="POSTIFOLIO.svg"
   xmlns:inkscape="http://www.inkscape.org/namespaces/inkscape"
   xmlns:sodipodi="http://sodipodi.sourceforge.net/DTD/sodipodi-0.dtd"
   xmlns="http://www.w3.org/2000/svg"
   xmlns:svg="http://www.w3.org/2000/svg"><sodipodi:namedview
     id="namedview7"
     pagecolor="#ffffff"
     bordercolor="#000000"
     borderopacity="0.25"
     inkscape:showpageshadow="2"
     inkscape:pageopacity="0.0"
     inkscape:pagecheckerboard="0"
     inkscape:deskcolor="#d1d1d1"
     inkscape:document-units="mm"
     showgrid="false"
     showguides="true"
     inkscape:zoom="0.8251524"
     inkscape:cx="988.30228"
     inkscape:cy="424.16407"
     inkscape:window-width="1920"
     inkscape:window-height="964"
     inkscape:window-x="0"
     inkscape:window-y="0"
     inkscape:window-maximized="1"
     inkscape:current-layer="svg5"><sodipodi:guide
       position="91.329412,388.8767"
       orientation="1,0"
       id="guide978"
       inkscape:locked="false" /><sodipodi:guide
       position="-85.767963,452.39018"
       orientation="1,0"
       id="guide980"
       inkscape:locked="false" /><sodipodi:guide
       position="363.83124,321.64159"
       orientation="0,-1"
       id="guide26281"
       inkscape:locked="false" /><sodipodi:guide
       position="147.11893,337.33321"
       orientation="1,0"
       id="guide26283"
       inkscape:locked="false" /><sodipodi:guide
       position="245.88989,342.69345"
       orientation="1,0"
       id="guide26339"
       inkscape:locked="false" /><sodipodi:guide
       position="-21.513859,439.41895"
       orientation="0,-1"
       id="guide48347"
       inkscape:locked="false" /><inkscape:page
       x="-6.2187473e-06"
       y="-1.6009466e-06"
       width="13.05488"
       height="7.8940916"
       id="page1"
       margin="0"
       bleed="0" /></sodipodi:namedview><defs
     id="defs2" /><g
     inkscape:label="Camada 1"
     inkscape:groupmode="layer"
     id="layer1"
     transform="translate(-102.17385,65.751751)"><path
       id="path1"
       style="font-weight:600;font-size:7.40833px;line-height:1.5;font-family:Montserrat;-inkscape-font-specification:'Montserrat Semi-Bold';text-align:justify;opacity:1;fill:#ffffff;fill-opacity:1;stroke:#333333;stroke-width:0.02;stroke-linecap:square;stroke-linejoin:bevel;stroke-dasharray:none;paint-order:markers stroke fill"
       d="m 105.85528,-65.741757 c -1.89246,0 -3.07547,1.070671 -3.07547,2.794159 0,0.856112 0.37207,1.565145 1.05921,2.038259 l -1.65638,3.041675 h 2.46728 l 1.25015,-2.478285 h 0.75511 v 2.478285 h 1.80567 0.48089 1.80567 v -2.478285 h 0.75512 l 1.25014,2.478285 h 2.46729 l -1.65638,-3.041675 c 0.68714,-0.473114 1.0592,-1.182147 1.0592,-2.038259 0,-1.723488 -1.183,-2.794159 -3.07546,-2.794159 h -2.60558 -0.48089 z m 0,0.473027 h 2.60557 v 2.92931 h -1.32164 v -1.690168 h -1.28393 c -0.75473,0 -1.25015,0.417377 -1.25015,1.08199 0,0.675878 0.47289,1.081204 1.25015,1.081204 h 2.60557 0.48089 2.60558 c 0.77726,0 1.25014,-0.405326 1.25014,-1.081204 0,-0.664613 -0.49541,-1.08199 -1.25014,-1.08199 h -1.28393 v 1.690168 h -1.32165 v -2.92931 h 2.60558 c 1.6221,0 2.60243,0.867996 2.60243,2.321132 0,0.765994 -0.34954,1.374224 -1.02541,1.745957 l -0.20273,0.112363 1.49844,2.748589 h -1.37429 l -1.25014,-2.478288 h -0.90127 -1.95261 -0.48089 -1.95261 -0.90126 l -1.25015,2.478288 h -1.37429 l 1.49844,-2.748589 -0.20272,-0.112363 c -0.67588,-0.371733 -1.02542,-0.979963 -1.02542,-1.745957 0,-1.453136 0.98033,-2.321132 2.60244,-2.321132 z m 0,1.712169 h 0.7999 v 1.217141 h -0.7999 c -0.50691,0 -0.77712,-0.20265 -0.77712,-0.608178 0,-0.529437 0.4955,-0.608963 0.77712,-0.608963 z m 4.89213,0 h 0.79991 c 0.28161,0 0.77711,0.07953 0.77711,0.608963 0,0.405528 -0.2702,0.608178 -0.77711,0.608178 h -0.79991 z m -3.6082,3.210612 h 1.32164 v 2.00526 h -1.32164 z m 1.80253,0 h 1.32165 v 2.00526 h -1.32165 z" /></g></svg>
